<svg xmlns="http://www.w3.org/2000/svg" xmlns:xlink="http://www.w3.org/1999/xlink"><symbol id="arr">
  <path stroke="currentColor" stroke-width="2" d="M9 19V1"/>
  <path d="M1 9l8-8 8 8" stroke="currentColor" stroke-width="2" stroke-linejoin="round"/>
</symbol><symbol id="lose-heading" viewBox="0 0 660.77 109.24">
  <path d="M2.66,92V8H16.1V42.2H53.3V8H66.74V92H53.3V58.64H16.1V92H2.66Z" transform="translate(-2.16 -1.5)" fill="none" stroke="currentColor"/>
  <path d="M147.62,8V24.44H97V41.6h33.6V58H97V75.56h50.64V92H83.54V8h64.08Z" transform="translate(-2.16 -1.5)" fill="none" stroke="currentColor"/>
  <path d="M199.22,8l20.52,42.36L235.34,8h16.44l-31,84H204.38l9.48-25.92L185.78,8h13.44Z" transform="translate(-2.16 -1.5)" fill="none" stroke="currentColor"/>
  <path d="M273.74,24.44V92H260.3V8h50.16V24.44H273.74Z" transform="translate(-2.16 -1.5)" fill="none" stroke="currentColor"/>
  <path d="M307.1,92l28-84h27.12l28.08,84H376.82L369,68.48h-37.8L323.42,92H307.1Zm56.64-40L350.3,11.84,336.86,52h26.88Z" transform="translate(-2.16 -1.5)" fill="none" stroke="currentColor"/>
  <path d="M396.38,110.24V75.56h7.44c4.56-4.68,7.8-18.36,8.76-56L412.94,8h48.6V75.56h10v34.68H456.86V92H411v18.24H396.38ZM448.1,75.56V24.44H425.54v3.12c-0.48,22.44-3.24,37.68-7.2,48H448.1Z" transform="translate(-2.16 -1.5)" fill="none" stroke="currentColor"/>
  <path d="M477.74,92l28-84h27.12L560.9,92H547.46l-7.8-23.52h-37.8L494.06,92H477.74Zm56.64-40-13.44-40.2L507.5,52h26.88Z" transform="translate(-2.16 -1.5)" fill="none" stroke="currentColor"/>
  <path d="M568.7,76.88a13.77,13.77,0,0,0,5,1c6.6,0,10.44-6.24,12-58.32L586.22,8h46.2V92H619V24.44H598.82l-0.12,3.12C597.14,81,589,94.4,573.74,94.4a28.55,28.55,0,0,1-6.72-.84Z" transform="translate(-2.16 -1.5)" fill="none" stroke="currentColor"/>
  <path d="M646.1,70.4L647.54,2H661l1.44,68.4H646.1Zm8.28,6.36c4.8,0,8,3.24,8,8.16a8,8,0,0,1-16.08,0C646.34,80,649.58,76.76,654.38,76.76Z" transform="translate(-2.16 -1.5)" fill="none" stroke="currentColor"/>
</symbol><symbol id="next">
  <path d="M1 1l10 10L1 21" stroke="currentColor" stroke-width="2" stroke-linejoin="round"/>
</symbol><symbol id="prev">
  <path d="M11 1L1 11l10 10" stroke="currentColor" stroke-width="2" stroke-linejoin="round"/>
</symbol><symbol id="prize1-mob">
  <path d="M88.5027 25.5h-6.0054c-3.3213 0-5.9973-2.5846-5.9973-5.6942V7.19419C76.5 4.08464 79.176 1.5 82.4973 1.5h6.0054C91.824 1.5 94.5 4.08464 94.5 7.19419V19.8058c0 3.1069-2.6761 5.6942-5.9973 5.6942z" stroke="#fff"/>
  <path d="M80.1548 42.5704H54.0649v-6.0945h23.662c2.348 0 4.2533 1.9113 4.2533 4.2669-.0036 1.0084-.8202 1.8276-1.8254 1.8276zM48.8673 69.6906c.1836 1.2102-.7533 2.3-1.9774 2.3h-1.9532c-.9887 0-1.829-.7224-1.9773-1.6999l-2.104-13.8648c-.1837-1.2102.7532-2.3 1.9773-2.3h1.9532c.9887 0 1.829.7224 1.9774 1.6999l2.104 13.8648zM70.1528 69.691c.1834 1.2101-.7534 2.2996-1.9774 2.2996h-1.9533c-.9888 0-1.8292-.7226-1.9774-1.7003l-2.1012-13.8648c-.1833-1.2101.7535-2.2996 1.9775-2.2996h1.9533c.9888 0 1.8292.7226 1.9774 1.7003l2.1011 13.8648z" fill="#A67EE5" stroke="#fff" stroke-miterlimit="10"/>
  <path d="M82.0312 47.9986H66.3823c-1.1868 0-2.1957-.8701-2.3735-2.0497l-4.6635-31.0294c1.7928-1.5036 2.8852-3.8227 2.7074-6.39305-.2613-3.75353-3.2953-6.79712-7.0369-7.05561-.3484-.02549-.6932-.02185-1.0343 0h-23.662l-.1343 44.19406 6.772 10.0301 20.2687 3.6042c.5698.2075 1.1795.324 1.8146.324h22.9907c3.201 0 5.7922-2.603 5.7922-5.8105 0-3.211-2.5912-5.8141-5.7922-5.8141z" fill="#A67EE5" stroke="#fff" stroke-miterlimit="10"/>
  <path d="M39.3163 45.9539l-4.6635-31.0295c1.7928-1.5036 2.8852-3.8227 2.7074-6.39298-.2613-3.75353-3.2953-6.79713-7.0369-7.05562-4.4385-.30582-8.1329 3.21471-8.1329 7.60172 0 .78638.1197 1.54368.3375 2.25718l6.576 43.7645c.3919 2.6031 2.6202 4.529 5.2441 4.529h31.3485c3.2009 0 5.7921-2.6031 5.7921-5.8105 0-3.2111-2.5948-5.8105-5.7921-5.8105H41.6897c-1.1867-.0073-2.1956-.8774-2.3734-2.0533z" fill="#A67EE5" stroke="#fff" stroke-miterlimit="10"/>
  <path d="M58.1439 42.5704H27.22l-.9145-6.0945h29.4106c2.348 0 4.2533 1.9113 4.2533 4.2669-.0036 1.0084-.8202 1.8276-1.8255 1.8276z" fill="#A67EE5" stroke="#fff" stroke-miterlimit="10"/>
  <path d="M34.6526 14.9195h24.6927" stroke="#fff" stroke-miterlimit="10" stroke-linecap="round"/>
  <path d="M18.4375 72.5c9.5355 0 17.2656-7.7301 17.2656-17.2656 0-9.5356-7.7301-17.2656-17.2656-17.2656-9.53554 0-17.26562 7.73-17.26562 17.2656 0 9.5355 7.73008 17.2656 17.26562 17.2656z" fill="#36E69A" stroke="#fff"/>
  <path d="M11.8874 55.2344c0-9.1949 2.9313-16.6491 6.5501-16.6491-9.19487 0-16.64911 7.4542-16.64911 16.6491S9.24263 71.8835 18.4375 71.8835c-3.6188-.0023-6.5501-7.4542-6.5501-16.6491z" fill="#068E4D"/>
  <path d="M18.4375 38.5853c3.6164 0 6.5501 7.4542 6.5501 16.6491s-2.9313 16.6491-6.5501 16.6491c9.1949 0 16.6491-7.4542 16.6491-16.6491s-7.4542-16.6491-16.6491-16.6491z" fill="#36E69A"/>
  <path d="M18.4375 71.8835c3.6176 0 6.5501-7.4541 6.5501-16.6491 0-9.1951-2.9325-16.6491-6.5501-16.6491-3.6175 0-6.5501 7.454-6.5501 16.6491 0 9.195 2.9326 16.6491 6.5501 16.6491z" fill="#25B774"/>
  <path d="M13.2344 53.3279c0-2.3924 3.1014-3.2967 5.1306-3.2967 2.3916 0 5.2756.9043 5.2756 3.2042 0 2.0858-2.4193 1.9933-3.4062 2.5751-.5755.3315-.9166.9335-.9954 1.6415-.0555.4894-.4477.8569-.9145.8569-.5542 0-.9826-.5119-.9165-1.0959.1151-1.0214.7503-2.0497 2.3937-2.5547 1.4495-.4443 1.9994-.5976 1.9994-1.1342 0-.9809-2.0143-1.4251-3.4936-1.4116-1.2171 0-3.4062.3224-3.4062 1.7475v.0068c0 .345-.2814.6133-.6011.5502l-.6203-.1195c-.2196-.0429-.3901-.23-.4157-.4645-.0192-.1737-.0298-.345-.0298-.5051zm4.2183 6.8683c0-.6291.3922-1.0417.972-1.0417s.972.4149.972 1.0417c0 .6134-.3922 1.0418-.972 1.0418s-.972-.4284-.972-1.0418z" fill="#fff"/>
</symbol><symbol id="prize1">
  <path d="M62.1257 222.89c-1.2082-.084-2.1292-1.144-2.0362-2.356L73.7518 27.3658c1.0984-15.4856-4.7991-21.91893-8.7449-24.47021-1.0224-.66113-.6675-2.246139.5323-2.449564C73.9968-.952515 93.1595-.884707 91.0219 29.2899L77.4103 221.763c-.0845 1.212-1.1407 2.136-2.3489 2.043l-12.9357-.916z" fill="#fff"/>
  <path d="M95.4831 223.263c-1.2166-.017-2.1883-1.017-2.1714-2.229l2.239-193.6343c.1859-15.528-6.0749-21.60531-10.1643-23.91078-1.0646-.6018-.8027-2.20377.3886-2.475 8.3563-1.898625 27.494-2.9666 27.147 27.28428l-2.247 192.9308c-.017 1.221-1.014 2.195-2.222 2.178l-12.9699-.144z" fill="#fff"/>
  <path d="M245.97 120.526h-17.118c-9.634 0-17.52-7.907-17.52-17.58V65.118c0-9.6728 7.886-17.5794 17.52-17.5794h17.118c9.635 0 17.521 7.9066 17.521 17.5794v37.828c0 9.665-7.886 17.58-17.521 17.58z" stroke="#fff" stroke-width="2"/>
  <path d="M228.482 154.913h-60.741v-14.189h55.089c5.466 0 9.902 4.45 9.902 9.934-.008 2.348-1.909 4.255-4.25 4.255zM156.453 223.407h-13.966l-6.312-41.591h13.967l6.311 41.591zM206.008 223.407h-13.967l-6.303-41.591h13.967l6.303 41.591z" fill="#A67EE5" stroke="#fff" stroke-width="2" stroke-miterlimit="10"/>
  <path d="M252.309 167.551h-55.891c-2.763 0-5.112-2.026-5.526-4.772l-10.857-72.2415c4.174-3.5006 6.717-8.8998 6.303-14.8839-.608-8.7387-7.672-15.8247-16.383-16.4265-.811-.0593-1.614-.0508-2.408 0h-55.089l-.312 102.8899 15.766 23.352 47.189 8.391c1.326.483 2.746.754 4.224.754h72.984c7.452 0 13.485-6.06 13.485-13.527 0-7.476-6.033-13.536-13.485-13.536z" fill="#A67EE5" stroke="#fff" stroke-width="2" stroke-miterlimit="10"/>
  <path d="M133.404 162.787l-10.857-72.241c4.174-3.5006 6.717-8.8998 6.303-14.8839-.608-8.7387-7.672-15.8247-16.383-16.4265-10.333-.712-18.9345 7.4844-18.9345 17.6979 0 1.8309.2788 3.5939.7857 5.2552L109.628 184.079c.913 6.06 6.1 10.544 12.209 10.544h72.984c7.452 0 13.485-6.06 13.485-13.528 0-7.476-6.041-13.527-13.485-13.527H138.93c-2.763-.017-5.112-2.043-5.526-4.781z" fill="#A67EE5" stroke="#fff" stroke-width="2" stroke-miterlimit="10"/>
  <path d="M177.238 154.913h-71.995l-2.129-14.189h68.472c5.466 0 9.902 4.45 9.902 9.934-.008 2.348-1.909 4.255-4.25 4.255z" fill="#A67EE5" stroke="#fff" stroke-width="2" stroke-miterlimit="10"/>
  <path d="M122.547 90.5375h57.488" stroke="#fff" stroke-width="2" stroke-miterlimit="10" stroke-linecap="round"/>
  <path d="M50.1628 89.071c10.3501 13.753 15.5889 26.951 15.5892 26.924-.026-.007-9.8805-10.007-20.0767-23.5528-10.1723-13.5713-17.0656-25.8608-17.067-25.8819-.026-.0068 11.2265 8.7395 21.5545 22.5107zM51.9217 109.489c13.717 9.539 22.8115 20.511 22.7972 20.486-.0188.006-12.308-6.27-25.8398-15.708-13.5145-9.465-23.4122-18.6754-23.416-18.7007-.0229.0079 12.7525 4.3565 26.4586 13.9227z" fill="#36E69A"/>
  <path d="M64.6397 100.581c4.5676 16.471 10.0591 29.379 10.0792 29.394-.018.017.0967-13.847-4.4973-30.5216-4.5622-16.6772-12.0748-29.4609-12.0547-29.4452-.0139.0136 1.9368 14.1004 6.4728 30.5728z" fill="#36E69A"/>
  <path d="M78.2976 108.621c.0956 16.905 2.0515 30.654 2.0611 30.67-.0253.004 3.7837-13.013 3.7619-30.054.0083-17.0371-3.9654-31.378-3.9575-31.3551-.0188.0055-1.9287 13.8436-1.8655 30.7391z" fill="#25B774"/>
  <path d="M54.0653 124.656c15.1507 6.039 26.3119 14.657 26.2934 14.635-.0075.015-13.1664-3.197-28.1708-9.239-14.9934-6.071-26.3546-12.676-26.3683-12.69-.014.013 13.0993 1.224 28.2457 7.294zM59.0439 138.93c15.5918 4.071 27.5734 11.22 27.5556 11.209-.0027.023-13.3083-1.46-28.7838-5.605-15.4729-4.17-27.4089-9.318-27.4185-9.334-.0067.026 13.0592-.372 28.6467 3.73zM89.696 119.886c-2.7638 16.471-3.0979 30.231-3.0948 30.246-.0235-.003 5.9361-11.994 8.8243-28.543 2.9124-16.535 1.4159-31.2065 1.4214-31.1878-.0277-.0002-4.3588 13.0258-7.1509 29.4848z" fill="#25B774"/>
  <path d="M69.8408 157.14c15.4111 4.711 27.0834 12.354 27.0697 12.34-.0027.023-13.239-2.017-28.529-6.793-15.2898-4.804-26.9946-10.439-27.0042-10.455-.0067.026 13.0568.167 28.4635 4.908z" fill="#068E4D"/>
  <path d="M101.254 139.387c-3.4436 16.341-4.3466 30.078-4.3411 30.097-.0235-.003 6.4311-11.74 9.9951-28.158 3.595-16.402 2.706-31.116 2.711-31.097-.024-.003-4.893 12.828-8.365 29.158zM79.8784 175.79c15.2027 5.349 26.5566 13.481 26.5436 13.467-.006.019-13.1466-2.571-28.23-7.979-15.0814-5.443-26.5437-11.555-26.5533-11.571-.0068.025 13.0414.704 28.2397 6.083z" fill="#068E4D"/>
  <path d="M111.998 159.354c-4.117 16.186-5.586 29.887-5.579 29.899-.026-.007 6.906-11.475 11.148-27.729 4.268-16.247 3.994-30.981 3.993-30.964-.024-.003-5.419 12.614-9.562 28.794z" fill="#068E4D"/>
  <path d="M63.5976 112.768c23.1814 34.376 42.2784 71.413 56.8604 110.366" stroke="#36E69A" stroke-width="2" stroke-miterlimit="10" stroke-linecap="round" stroke-linejoin="round"/>
  <path d="M43.0092 224.097H266.5" stroke="#fff" stroke-width="2" stroke-miterlimit="10" stroke-linecap="round"/>
</symbol><symbol id="prize2-mob">
  <path d="M64.8535 10.7452c.9311-.1827 1.6402.816 1.1522 1.6302-1.967 3.2772-5.2438 9.6538-1.6172 10.6308 2.5855.6974-1.7223-19.09433 17.4937-14.92072.8713.1898 1.148 1.29066.4812 1.88238-1.2243 1.08304-2.7773 2.69334-3.4061 4.34434-.3758.9852.7467 1.8708 1.624 1.2869 3.3077-2.2029 11.1914-5.72669 20.3687 2.278.297.2593.432.6582.35 1.0438-.535 2.5745-2.7726 12.3851-6.0967 14.1837-3.8328 2.0762-8.3121-1.0596-10.1478 1.7305-2.0766 3.1559 2.7262 3.9505 6.7034 2.6717.9005-.2898 1.7134.6486 1.3074 1.5034-1.2557 2.6506-3.9884 6.5002-9.3886 6.9658-8.33.7195-10.2035-8.3191-11.6889-7.1487-2.2521 1.7753 2.1815 5.8472 4.7261 7.9055.7033.569.4396 1.6922-.44 1.9059-6.8244 1.6584-16.5794-.9377-17.2176-10.3492-.6746-9.9484-3.8275-8.8749-4.7997-13.8789-1.0574-5.4355 2.5237-12.0777 10.5959-13.6654zm7.8523 22.202c-.319 1.4584 1.8502 2.8208 3.5356 3.1906 1.6859.3685 4.9971-.1439 5.316-1.6023.3189-1.4583-2.4746-3.308-4.1605-3.6765-1.6846-.368-4.3727.6311-4.6911 2.0882z" fill="#E81A5A"/>
  <path d="M89.5603 47.3661c.2264.3174.2521.7358.0729 1.0812-.8006 1.5383-3.2913 5.7194-7.1712 6.7253-2.6482.6867-3.7277-2.0038-5.2636-.5795-1.5691 1.4541.5648 2.5771 2.9181 2.647.9177.0268 1.374 1.1223.7291 1.7756-1.2655 1.2819-3.31 2.6031-6.1557 2.1595-5.1832-.8106-4.9697-6.5981-6.0503-6.1074-1.458.6614.0372 3.2253 1.2582 4.9344.5195.7263-.0484 1.7266-.9374 1.6508-4.2422-.3592-9.0783-3.3762-8.1197-8.8497 1.08-6.1625-1.0018-5.9808-.8448-9.176.1643-3.3525 3.1349-6.7417 7.9832-6.7494.8659-.0011 1.3569.991.831 1.6805-1.5572 2.043-3.9262 5.4822-2.4307 5.7331 1.6508.2765 1.203-10.8787 14.8483-4.8014.7203.32.8361 1.2967.2119 1.778-.0186.0151-.0385.03-.0571.0451-.8691.6799-.2332 2.0816.8465 1.8498 1.8739-.4046 4.4704.188 7.3313 4.2031z" fill="#FE6183"/>
  <path d="M51.2863 68.1073c1.0579 0 1.9177-.8644 1.9177-1.9178V63.439c0-1.0579-.8643-1.9177-1.9177-1.9177-1.0579 0-1.9177.8643-1.9177 1.9177v2.7505c0 1.0534.8643 1.9178 1.9177 1.9178zM10.2625 68.1073c1.0579 0 1.9177-.8644 1.9177-1.9178V63.439c0-1.0579-.8643-1.9177-1.9177-1.9177-1.05789 0-1.91771.8643-1.91771 1.9177v2.7505c0 1.0534.86432 1.9178 1.91771 1.9178z" fill="#A67EE5" stroke="#fff" stroke-miterlimit="10"/>
  <path d="M7.30934 63.439H47.7704c3.3898 0 6.1628-2.773 6.1628-6.1628V21.3888c0-3.3898-2.773-6.1628-6.1628-6.1628H7.30934c-3.38976 0-6.16279 2.773-6.16279 6.1628v35.8874c0 3.3898 2.77303 6.1628 6.16279 6.1628z" fill="#A67EE5" stroke="#fff" stroke-miterlimit="10"/>
  <path d="M41.0809 20.0698v24.4171M21.9174 20.0698v24.4171" stroke="#fff" stroke-miterlimit="10" stroke-linecap="round"/>
  <path d="M22.7006 8.51392h17.597c1.22 0 2.2149.99487 2.2149 2.21478v8.6928c0 .3601-.2881.6482-.6483.6482h-1.4675c-.3602 0-.6483-.2881-.6483-.6482v-7.8104c0-.3782-.3106-.6888-.6887-.6888H23.934c-.3781 0-.6887.3106-.6887.6888v7.8104c0 .3601-.2881.6482-.6482.6482h-1.4676c-.3601 0-.6482-.2881-.6482-.6482v-8.6928c.0045-1.21991.9993-2.21478 2.2193-2.21478z" fill="#A67EE5" stroke="#fff" stroke-miterlimit="10"/>
  <path d="M15.1424 63.439h40.4611c3.3898 0 6.1628-2.773 6.1628-6.1628V21.3888c0-3.3898-2.773-6.1628-6.1628-6.1628H15.1424c-3.3898 0-6.16279 2.773-6.16279 6.1628v35.8874c.00451 3.3898 2.77749 6.1628 6.16279 6.1628z" fill="#A67EE5" stroke="#fff" stroke-miterlimit="10"/>
  <path d="M52.5513 26.5837H18.199M52.5513 39.3325H18.199M52.5513 52.0812H18.199" stroke="#fff" stroke-miterlimit="10" stroke-linecap="round"/>
  <path d="M5.7924 27.2634h.36463v24.1425H5.7924c-1.04889 0-1.90872-.8598-1.90872-1.9087V29.1766c-.0045-1.0534.85532-1.9132 1.90872-1.9132z" fill="#A67EE5" stroke="#fff" stroke-miterlimit="10"/>
</symbol><symbol id="prize2">
  <path d="M117.345 124.816c1.467-.982 3.4.223 3.147 1.971-1.025 7.035-2.074 20.329 4.851 19.404 4.937-.658-16.654-31.533 19.318-38.156 1.632-.3 2.896 1.391 2.176 2.885-1.324 2.737-2.834 6.615-2.729 9.899.063 1.961 2.624 2.675 3.711 1.044 4.096-6.154 15.098-17.857 36.59-10.703.696.232 1.213.82 1.351 1.54.927 4.802 4.126 23.244-.289 28.716-5.088 6.312-15.025 4.144-16.174 10.249-1.3 6.906 7.513 4.825 13.421-.223 1.338-1.144 3.406-.116 3.322 1.642-.253 5.45-2.181 14.017-11.115 18.69-13.78 7.21-23.479-6.957-25.189-3.883-2.591 4.662 7.939 8.47 13.782 10.177 1.616.471 1.969 2.588.613 3.586-10.522 7.742-29.126 10.285-36.973-5.409-8.295-16.59-12.936-12.486-18.194-20.376-5.714-8.569-4.333-22.538 8.381-31.053zm29.403 32.469c.499 2.732 5.199 3.514 8.357 2.939 3.158-.577 8.473-3.832 7.974-6.563-.499-2.732-6.62-3.902-9.778-3.325-3.155.577-7.051 4.22-6.553 6.949z" fill="#E81A5A"/>
  <path d="M116.86 245.878s-4.908-70.272 5.541-80.722" stroke="#E81A5A" stroke-width="2" stroke-miterlimit="10"/>
  <path d="M1 247.1h136.663" stroke="#fff" stroke-width="2" stroke-miterlimit="10" stroke-linecap="round"/>
  <path d="M105.767 247.1c1.948 0 3.531-1.592 3.531-3.531v-5.065c0-1.948-1.592-3.531-3.531-3.531-1.948 0-3.531 1.591-3.531 3.531v5.065c0 1.939 1.591 3.531 3.531 3.531zM30.2276 247.1c1.9479 0 3.5312-1.592 3.5312-3.531v-5.065c0-1.948-1.5915-3.531-3.5312-3.531-1.948 0-3.5312 1.591-3.5312 3.531v5.065c0 1.939 1.5915 3.531 3.5312 3.531z" fill="#A67EE5" stroke="#fff" stroke-width="2" stroke-miterlimit="10"/>
  <path d="M24.7899 238.504h74.503c6.2421 0 11.3481-5.106 11.3481-11.348v-66.081c0-6.242-5.106-11.348-11.3481-11.348h-74.503c-6.2418 0-11.3479 5.106-11.3479 11.348v66.081c0 6.242 5.1061 11.348 11.3479 11.348z" fill="#A67EE5" stroke="#fff" stroke-width="2" stroke-miterlimit="10"/>
  <path d="M86.9752 158.646v44.961M51.6881 158.646v44.961" stroke="#fff" stroke-width="2" stroke-miterlimit="10" stroke-linecap="round"/>
  <path d="M53.1305 137.368h32.4023c2.2464 0 4.0783 1.832 4.0783 4.078v16.007c0 .663-.5305 1.193-1.1936 1.193h-2.7023c-.6631 0-1.1936-.53-1.1936-1.193v-14.382c0-.696-.572-1.268-1.2683-1.268H55.4017c-.6963 0-1.2682.572-1.2682 1.268v14.382c0 .663-.5305 1.193-1.1936 1.193h-2.7023c-.6631 0-1.1937-.53-1.1937-1.193v-16.007c.0083-2.246 1.8402-4.078 4.0866-4.078z" fill="#A67EE5" stroke="#fff" stroke-width="2" stroke-miterlimit="10"/>
  <path d="M39.2131 238.504h74.5029c6.242 0 11.348-5.106 11.348-11.348v-66.081c0-6.242-5.106-11.348-11.348-11.348H39.2131c-6.2417 0-11.3479 5.106-11.3479 11.348v66.081c.0083 6.242 5.1144 11.348 11.3479 11.348z" fill="#A67EE5" stroke="#fff" stroke-width="2" stroke-miterlimit="10"/>
  <path d="M108.096 170.641H44.8414M108.096 194.116H44.8414M108.096 217.591H44.8414" stroke="#fff" stroke-width="2" stroke-miterlimit="10" stroke-linecap="round"/>
  <path d="M21.9964 171.892h.6715v44.455h-.6715c-1.9313 0-3.5146-1.583-3.5146-3.514v-37.418c-.0082-1.939 1.575-3.523 3.5146-3.523z" fill="#A67EE5" stroke="#fff" stroke-width="2" stroke-miterlimit="10"/>
  <path d="M69.3359 137.078L13.7488 57.245M69.3358 137.078L50.8013 57.245M87.8621 57.245l-18.5263 79.833M124.915 57.245l-55.5792 79.833" stroke="#fff" stroke-width="2" stroke-miterlimit="10" stroke-linecap="round" stroke-linejoin="round"/>
  <path d="M124.915 58.0739c-.456 0-.829-.373-.829-.8289 0-6.2998-7.941-11.4225-17.698-11.4225-9.557 0-17.498 5.0232-17.6886 11.1904l-.0083.2321c0 .4559-.373.8289-.8289.8289-.456 0-.829-.373-.829-.8289 0-6.2998-7.941-11.4225-17.6973-11.4225-9.7564 0-17.6974 5.1227-17.6974 11.4225 0 .4559-.373.8289-.8289.8289-.4559 0-.8289-.373-.8289-.8289l-.0083-.2404c-.199-6.1672-8.1317-11.1821-17.6891-11.1821-9.7563 0-17.6974 5.1227-17.6974 11.4225 0 .4559-.373.8289-.8289.8289-.4559 0-.8289-.373-.8289-.8289C12.9198 26.1357 38.2266.828918 69.3276.828918c31.1094 0 56.4164 25.306782 56.4164 56.416082 0 .4559-.365.8289-.829.8289z" fill="#F7396B"/>
  <path d="M69.3359 1.65783c30.7031 0 55.5871 24.88407 55.5871 55.58717 0-6.764-8.297-12.2514-18.526-12.2514-10.1047 0-18.311 5.3465-18.5182 11.9944 0 .0829-.0083.1741-.0083.257 0-6.764-8.2975-12.2514-18.5263-12.2514S50.8013 50.481 50.8013 57.245c0-.0912-.0082-.1741-.0082-.2653-.2156-6.6396-8.4218-11.9861-18.518-11.9861-10.2372 0-18.5263 5.4874-18.5263 12.2514 0-30.7031 24.8841-55.58717 55.5871-55.58717zm0-1.65783c-31.5651 0-57.245 25.6798-57.245 57.245 0 .9118.7461 1.6578 1.6579 1.6578.9118 0 1.6578-.746 1.6578-1.6578 0-5.8439 7.568-10.5936 16.8685-10.5936 9.1097 0 16.6778 4.6585 16.8601 10.3781l.0083.1326v.0829c0 .9118.746 1.6578 1.6578 1.6578.9119 0 1.6579-.7377 1.6579-1.6578 0-5.8439 7.568-10.5936 16.8684-10.5936 9.3005 0 16.8685 4.7497 16.8685 10.5936 0 .9118.746 1.6578 1.6578 1.6578.9118 0 1.6578-.746 1.6578-1.6578v-.0746l.0083-.1327c.1824-5.7278 7.7421-10.3863 16.86-10.3863 9.301 0 16.869 4.7497 16.869 10.5936 0 .9118.746 1.6578 1.657 1.6578.912 0 1.658-.746 1.658-1.6578C126.573 25.6798 100.893 0 69.3359 0z" fill="#fff"/>
  <path d="M69.3359 1.65783c9.9222 0 18.0207 20.89697 18.5429 55.33017.2072-6.6479 8.4135-11.9944 18.5182-11.9944 10.237 0 18.526 5.4874 18.526 12.2514-.008-30.7031-24.892-55.58717-55.5871-55.58717z" fill="#E81A5A"/>
  <path d="M69.3276 1.65783c-30.6947 0-55.5788 24.88407-55.5788 55.58717 0-6.764 8.2974-12.2514 18.5263-12.2514 10.0962 0 18.3024 5.3465 18.518 11.9861.5222-34.4249 8.6124-55.32187 18.5345-55.32187z" fill="#FE6183"/>
  <path d="M69.336 1.65783c-9.9305 0-18.0207 20.89697-18.5429 55.32187 0 .0912.0083.1741.0083.2653 0-6.764 8.2974-12.2514 18.5263-12.2514 10.2288 0 18.5262 5.4874 18.5262 12.2514 0-.0912.0083-.1741.0083-.257-.5139-34.4332-8.6041-55.33017-18.5262-55.33017z" fill="#F7396B"/>
  <path d="M176.796 201.401c.578.562.785 1.403.549 2.172-1.06 3.426-4.58 12.854-12.101 16.337-5.134 2.377-8.326-2.697-10.923.769-2.654 3.539 2.103 5.034 6.916 4.305 1.877-.285 3.211 1.775 2.141 3.343-2.101 3.076-5.771 6.521-11.725 6.671-10.845.269-12.553-11.584-14.569-10.186-2.722 1.885 1.269 6.548 4.386 9.573 1.325 1.285.54 3.531-1.297 3.706-8.763.839-19.719-3.51-19.794-15-.083-12.937-4.251-11.797-5.115-18.356-.906-6.881 3.883-14.876 13.744-16.686 1.762-.322 3.128 1.514 2.313 3.112-2.412 4.732-5.959 12.606-2.824 12.563 3.461-.048-1.578-22.578 28.432-15.263 1.584.384 2.181 2.329 1.089 3.539-.032.037-.067.075-.099.113-1.517 1.704.296 4.321 2.406 3.45 3.663-1.517 9.165-1.272 16.471 5.838z" fill="#FE6183"/>
  <path d="M99 245.886s3.48-30.113 21.701-30.113" stroke="#FE6183" stroke-width="2" stroke-miterlimit="10"/>
</symbol><symbol id="prize3-mob">
  <path d="M75.8659 45.7309c1.1824 0 2.1409-.9586 2.1409-2.141s-.9585-2.1409-2.1409-2.1409c-1.1825 0-2.141.9585-2.141 2.1409s.9585 2.141 2.141 2.141zM85.7809 78.2732c1.0642 0 1.9269-.9585 1.9269-2.1409s-.8627-2.141-1.9269-2.141-1.9268.9586-1.9268 2.141.8626 2.1409 1.9268 2.1409zM66.9443 82.1269H11.275c-2.4717 0-4.49497-1.9759-4.49497-4.3899V67.1403H71.4366V77.737c0 2.4166-2.0206 4.3899-4.4923 4.3899z" fill="#A67EE5" stroke="#fff" stroke-miterlimit="10"/>
  <path d="M80.6761 82.1269H25.3755c-2.4553 0-4.4652-1.9759-4.4652-4.3899V67.1403h64.2283V77.737c0 2.4166-2.0072 4.3899-4.4625 4.3899z" fill="#A67EE5" stroke="#fff" stroke-miterlimit="10"/>
  <path d="M70.7373 37.5953H5.61667c-2.4717 0-4.49497 2.0145-4.49497 4.4755v22.0695c0 1.6569 1.34315 3 3 3h71.1079V42.0708c0-2.461-2.0206-4.4755-4.4923-4.4755zM61.2361 76.5605H48.2384c-.8986 0-1.6368-.704-1.6368-1.5667v-4.3979c0-.2535.214-.4583.4787-.4583h1.0832c.2647 0 .4787.2048.4787.4583v3.7758c0 .2663.2273.4864.5081.4864h11.1738c.2781 0 .5081-.2176.5081-.4864v-3.7758c0-.2535.214-.4583.4787-.4583h1.0832c.2648 0 .4787.2048.4787.4583v4.3979c0 .8601-.7355 1.5667-1.6367 1.5667z" fill="#A67EE5" stroke="#fff" stroke-miterlimit="10"/>
  <path d="M35.8969 64.5712h-3.4255v4.71h3.4255v-4.71zM77.0031 64.5712h-3.4255v4.71h3.4255v-4.71zM85.1386 77.7058v-3.7145h-3.9138c-1.1494 0-2.0809.9772-2.0809 2.183v5.9526h1.7804c2.3187 0 4.2143-1.9886 4.2143-4.4211zM17.9765 71.8504h-7.8346c-.20166 0-.36456-.1658-.36456-.371v-.9708c0-.2052.1629-.371.36456-.371h7.8346c.2017 0 .3646.1658.3646.371v.9708c0 .2052-.1629.371-.3646.371z" fill="#A67EE5" stroke="#fff" stroke-miterlimit="10"/>
  <path d="M20.6572 33.1725v34.3914" stroke="#fff" stroke-miterlimit="10" stroke-linecap="round"/>
  <path d="M6.76445 67.1317V43.4288c0-3.2202 2.61055-5.8274 5.83085-5.8274v0" stroke="#fff"/>
  <path d="M20.2083 31.8918l-.8422 1.4613c-.1981.3467.0496.7771.449.7771h1.6873c.3994 0 .6501-.4335.4489-.7771l-.8421-1.4613c-.2043-.3437-.7028-.3437-.9009 0z" fill="#fff"/>
  <path d="M11.4904 24.8537c2.516 4.2341 5.7048 6.7201 9.039 6.7201 3.6147 0 6.8277-2.9413 9.097-6.5787 2.2856-3.6637 3.7342-8.2167 3.7342-11.7714 0-6.95433-5.7018-12.603705-12.7034-12.603705-7.0015 0-12.70334 5.649375-12.70334 12.603705 0 3.474 1.3943 8.0253 3.53654 11.63z" fill="#3B7BF2" stroke="#fff"/>
  <path d="M16.3236 13.1438C16.3236 6.43805 18.2642 1 20.6573 1 13.9186 1 8.45386 6.43805 8.45386 13.1438c0 6.7057 5.33384 18.0498 12.07244 18.0498.0209 0 .0417-.003.0625-.003-2.3841-.071-4.2652-11.3588-4.2652-18.0468z" fill="#76ABFF"/>
  <path d="M32.8606 13.1438C32.8606 6.43805 27.3958 1 20.6572 1c2.393 0 4.3337 5.43805 4.3337 12.1438 0 6.6643-1.9615 17.8958-4.3337 18.0409 6.6791-.1451 12.2034-11.3766 12.2034-18.0409z" fill="#1553B7"/>
  <path d="M20.6099 31.1935c.0151 0 .0301-.0059.0482-.0059-.0241 0-.0452.003-.0693.003.006 0 .0151.0029.0211.0029z" fill="#3B7BF2"/>
  <path d="M24.9909 13.1438C24.9909 6.43805 23.0503 1 20.6572 1c-2.3931 0-4.3337 5.43805-4.3337 12.1438 0 6.685 1.8811 17.9758 4.2652 18.0468.0238 0 .0447-.0029.0685-.0029 2.3722-.1481 4.3337-11.3796 4.3337-18.0439z" fill="#3B7BF2"/>
  <path d="M17.88 12.094c-1.3251 0-2.2105.8731-2.2105 2.1982 0 1.325.8854 2.1981 2.2105 2.1981 1.3158 0 2.1982-.8731 2.1982-2.1981 0-1.3282-.8855-2.1982-2.1982-2.1982zm0 3.0805c-.7182 0-1.1826-.3591-1.1826-.8854 0-.5264.4675-.8855 1.1826-.8855.7059 0 1.1827.3591 1.1827.8855 0 .5294-.4799.8854-1.1827.8854zM23.3568 12.094c.5542 0 .8824.6223.5666 1.0805l-5.1455 7.4644c-.1301.1858-.3406.2973-.5666.2973-.5542 0-.8824-.6223-.5666-1.0805l5.1456-7.4645c.1269-.1858.3374-.2972.5665-.2972zM23.9266 16.5399c-1.3251-.0124-2.1982.8731-2.2105 2.1982 0 1.3251.8854 2.1981 2.2105 2.1981 1.3251 0 2.1982-.873 2.1982-2.1981 0-1.3251-.8731-2.1982-2.1982-2.1982zm0 3.0805c-.7183 0-1.1827-.3591-1.1827-.8854 0-.5387.4675-.8855 1.1827-.8855.7183 0 1.1827.3468 1.1827.8855 0 .5294-.4675.8854-1.1827.8854z" fill="#fff"/>
  <path d="M63.9677 30.0797C53.5324 44.1304 48.4606 66.4545 48.4606 66.4545" stroke="#3B7BF2" stroke-miterlimit="10" stroke-linecap="round" stroke-linejoin="round"/>
  <path d="M70.9156 26.6407c-2.8338 3.2505-7.4343 3.8768-7.4343 3.8768s-.0061-4.643 2.8278-7.8904c2.8338-3.2473 7.4343-3.8767 7.4343-3.8767s.0061 4.643-2.8278 7.8903z" fill="#76ABFF"/>
  <path d="M59.0297 31.1074c1.1676 4.1504-.8271 8.3434-.8271 8.3434s-3.8859-2.5389-5.0535-6.6893c-1.1675-4.1505.8271-8.3435.8271-8.3435s3.8859 2.5389 5.0535 6.6894z" fill="#3B7BF2"/>
  <path d="M66.5432 40.2749c-4.1504 1.1676-8.3404-.8271-8.3404-.8271s2.5389-3.8859 6.6894-5.0535c4.1504-1.1676 8.3434.8271 8.3434.8271s-2.542 3.8889-6.6924 5.0535z" fill="#3B7BF2"/>
  <path d="M53.432 42.3607c1.4747 4.0532-.2037 8.3799-.2037 8.3799s-4.0653-2.2409-5.537-6.294c-1.4747-4.0532.2037-8.3799.2037-8.3799s4.0653 2.2439 5.537 6.294z" fill="#1553B7"/>
  <path d="M61.6081 50.9443c-4.0532 1.4747-8.38-.2037-8.38-.2037s2.241-4.0653 6.2941-5.537c4.0531-1.4716 8.3799.2038 8.3799.2038s-2.2409 4.0653-6.294 5.5369z" fill="#1553B7"/>
  <path d="M40.4377 45.7828c5.3504 7.985 7.9507 20.6718 7.9507 20.6718" stroke="#3B7BF2" stroke-miterlimit="10" stroke-linecap="round" stroke-linejoin="round"/>
  <path d="M34.5936 44.1323c2.8338 3.2504 7.4343 3.8767 7.4343 3.8767s.0061-4.643-2.8278-7.8903c-2.8338-3.2474-7.4343-3.8768-7.4343-3.8768s-.006 4.643 2.8278 7.8904zM45.2216 47.131c-1.4747 4.0532.2037 8.38.2037 8.38s4.0653-2.241 5.537-6.2941c1.4746-4.0531-.2038-8.3799-.2038-8.3799s-4.0653 2.2439-5.5369 6.294z" fill="#3B7BF2"/>
  <path d="M37.0455 55.7148c4.0531 1.4747 8.3799-.2038 8.3799-.2038s-2.2409-4.0653-6.294-5.5369c-4.0532-1.4717-8.38.2037-8.38.2037s2.241 4.0653 6.2941 5.537z" fill="#3B7BF2"/>
</symbol><symbol id="prize3">
  <path stroke="#fff" stroke-width="2" stroke-linecap="round" stroke-linejoin="round" d="M1 252h257.521"/>
  <path d="M208.691 155.111c3.143 0 5.691-2.548 5.691-5.692 0-3.143-2.548-5.691-5.691-5.691S203 146.276 203 149.419c0 3.144 2.548 5.692 5.691 5.692zM235.048 241.617c2.829 0 5.123-2.548 5.123-5.691s-2.294-5.691-5.123-5.691c-2.828 0-5.122 2.548-5.122 5.691s2.294 5.691 5.122 5.691zM184.975 251.862H36.9904c-6.5705 0-11.9489-5.253-11.9489-11.67v-28.169H196.917v28.169c0 6.424-5.371 11.67-11.942 11.67z" fill="#A67EE5" stroke="#fff" stroke-width="2" stroke-miterlimit="10"/>
  <path d="M221.478 251.862H74.4735c-6.5269 0-11.8697-5.253-11.8697-11.67v-28.169H233.341v28.169c0 6.424-5.336 11.67-11.863 11.67zM195.058 133.484H21.9489C15.3784 133.484 10 138.839 10 145.381v53.642c0 7.18 5.8203 13 13 13h184v-66.642c0-6.542-5.371-11.897-11.942-11.897z" fill="#A67EE5" stroke="#fff" stroke-width="2" stroke-miterlimit="10"/>
  <path d="M169.801 237.065H135.25c-2.389 0-4.351-1.872-4.351-4.165v-11.691c0-.674.568-1.218 1.272-1.218h2.88c.703 0 1.272.544 1.272 1.218v10.037c0 .708.604 1.293 1.351 1.293h29.703c.739 0 1.351-.578 1.351-1.293v-10.037c0-.674.568-1.218 1.272-1.218h2.88c.703 0 1.272.544 1.272 1.218V232.9c0 2.286-1.955 4.165-4.351 4.165zM102.442 205.194h-9.1056v12.52h9.1056v-12.52zM211.714 205.194h-9.106v12.52h9.106v-12.52zM233.341 240.109v-9.874h-10.404c-3.055 0-5.531 2.598-5.531 5.803v15.824h4.732c6.164 0 11.203-5.286 11.203-11.753zM54.8051 224.544H33.9784c-.5361 0-.9691-.441-.9691-.986v-2.581c0-.546.433-.986.9691-.986h20.8267c.5361 0 .9692.44.9692.986v2.581c0 .545-.4331.986-.9692.986z" fill="#A67EE5" stroke="#fff" stroke-width="2" stroke-miterlimit="10"/>
  <path d="M135.486 200.8s8.302-74.587 39.714-90.018" stroke="#fff" stroke-width="2" stroke-miterlimit="10" stroke-linecap="round" stroke-linejoin="round"/>
  <path d="M172.715 110.116l9.266-24.4863c3.193.3766 6.131 1.4244 8.718 2.9717 1.515-1.0233 3.389-1.5391 5.346-1.3098 4.322.5075 7.408 4.4289 6.9 8.7514-.229 1.9567-1.17 3.6595-2.521 4.887.901 2.882 1.228 5.985.851 9.178l-25.965 3.299c-1.826.245-3.25-1.564-2.595-3.291z" fill="#3B7BF2"/>
  <path d="M133 210.633s6.89-44.681 37.946-56.528" stroke="#fff" stroke-width="2" stroke-miterlimit="10" stroke-linecap="round" stroke-linejoin="round"/>
  <path d="M165.608 155.036l9.016-16.475c2.3.567 4.368 1.583 6.122 2.926 1.2-.589 2.621-.774 4.039-.424 3.126.768 5.031 3.832 4.264 6.849-.349 1.37-1.187 2.485-2.291 3.23.398 2.12.359 4.36-.207 6.58l-19.339-.108c-1.364.001-2.241-1.413-1.604-2.578z" fill="#3B7BF2"/>
  <path d="M62.4087 89.7125V212.023" stroke="#fff" stroke-width="2" stroke-miterlimit="10" stroke-linecap="round"/>
  <path d="M233.961 106.796c0-2.323 1.621-4.267 3.798-4.766v-.005l21.067-5.4035c-7.78 14.8415-19.176 15.0745-19.97 15.0745h-.042c-2.686-.028-4.853-2.21-4.853-4.9z" fill="#fff"/>
  <path d="M217 92.8575l10.76.0475c.042-.133 1.026-2.8229 4.415-2.9037 1.473-.0333 2.661.575 3.478 1.7584.552.7984 1.003 1.6871 1.364 2.5853.632 1.5731 4.045 15.802 5.889 19.157 1.102 2.01 4.391 7.162 4.391 7.162.204.347.314.742.314 1.145v9.168s-3.109-1.079-3.109-3.911v-6.53c-1.915.271-6.045-1.649-8.331-2.88-3.15-1.697-5.113-3.702-6.363-6.763-1.231-3.027-1.231-6.088-.109-9.158.347-.946.855-1.8343.793-2.9131-.066-1.1406-1.387-2.7185-2.181-4.0539L217 92.8575z" fill="#fff"/>
  <path d="M25 212v-63.511c0-8.284 6.7157-14.989 15-14.989h.5" stroke="#fff" stroke-width="2"/>
  <path d="M96.5296 127.163c24.0984 32.446 35.8104 83.999 35.8104 83.999" stroke="#3B7BF2" stroke-width="2" stroke-miterlimit="10" stroke-linecap="round" stroke-linejoin="round"/>
  <path d="M80.4852 119.221c6.5442 7.506 17.1679 8.953 17.1679 8.953s.014-10.722-6.5301-18.221c-6.5442-7.5-17.1679-8.953-17.1679-8.953s-.014 10.722 6.5301 18.221z" fill="#76ABFF"/>
  <path d="M107.933 129.536c-2.697 9.584 1.91 19.267 1.91 19.267s8.973-5.863 11.67-15.447c2.696-9.585-1.91-19.268-1.91-19.268s-8.974 5.863-11.67 15.448z" fill="#3B7BF2"/>
  <path d="M90.5823 150.706c9.5847 2.696 19.2607-1.91 19.2607-1.91s-5.864-8.974-15.448-11.67c-9.5845-2.696-19.2673 1.91-19.2673 1.91s5.8701 8.981 15.4546 11.67z" fill="#3B7BF2"/>
  <path d="M120.86 155.523c-3.406 9.36.47 19.351.47 19.351s9.388-5.175 12.786-14.534c3.406-9.36-.47-19.352-.47-19.352s-9.388 5.182-12.786 14.535zM101.979 175.345c9.359 3.405 19.351-.471 19.351-.471s-5.175-9.388-14.535-12.786c-9.3595-3.398-19.3512.47-19.3512.47s5.1749 9.388 14.5352 12.787z" fill="#1553B7"/>
  <path d="M61.3363 84.8736l-2.1823 3.787c-.5135.8986.1284 2.0138 1.1634 2.0138H64.69c1.035 0 1.6849-1.1232 1.1634-2.0138l-2.1823-3.787c-.5295-.8906-1.8213-.8906-2.3348 0z" fill="#fff"/>
  <path d="M62.1469 85.01c-8.4806 0-16.921-6.4026-23.7729-18.0282-5.8169-9.8687-9.5718-22.2967-9.5718-31.6678 0-18.5819 15.1159-33.69772 33.6977-33.69772 18.5819 0 33.6977 15.11582 33.6977 33.69772 0 19.1675-15.5892 49.696-34.0507 49.696z" fill="#3B7BF2"/>
  <path d="M62.5 2.41859c18.1647 0 32.8953 14.73071 32.8953 32.89531 0 18.1647-15.0837 48.8938-33.2483 48.8938-18.1647 0-32.5423-30.7291-32.5423-48.8938 0-18.1646 14.7307-32.89531 32.8953-32.89531zm0-1.604656C43.4769.813934 28 16.2908 28 35.3139c0 9.5076 3.803 22.0961 9.676 32.069 7.0043 11.8824 15.6855 18.4214 24.463 18.4214 8.7934 0 17.603-6.539 24.8079-18.4054C93.0526 57.3538 97 44.7573 97 35.3139 97 16.2908 81.5231.813934 62.5.813934z" fill="#fff"/>
  <path d="M50.8182 35.3942c0-18.1647 5.2312-32.89538 11.6819-32.89538-18.1647 0-32.8954 14.73068-32.8954 32.89538 0 18.1646 14.3777 48.8937 32.5424 48.8937.0561 0 .1123-.008.1684-.008-6.4266-.1926-11.4973-30.7692-11.4973-48.8857z" fill="#76ABFF"/>
  <path d="M95.3953 35.3942c0-18.1647-14.7307-32.89538-32.8953-32.89538 6.4507 0 11.6819 14.73068 11.6819 32.89538 0 18.0523-5.2874 48.4765-11.6819 48.8696 18.0042-.3931 32.8953-30.8173 32.8953-48.8696z" fill="#1553B7"/>
  <path d="M62.3718 84.288c.0403 0 .0805-.0162.1288-.0162-.0644 0-.1208.0081-.1852.0081.0161 0 .0403.0081.0564.0081z" fill="#3B7BF2"/>
  <path d="M74.1816 35.3942c0-18.1647-5.2312-32.89538-11.6819-32.89538S50.8179 17.2295 50.8179 35.3942c0 18.1085 5.0707 48.6931 11.4973 48.8857.0642 0 .1203-.0081.1845-.0081 6.3946-.4011 11.6819-30.8253 11.6819-48.8776z" fill="#3B7BF2"/>
  <path d="M55.3028 28.3578c-3.4339 0-5.7286 2.2625-5.7286 5.6965 0 3.4339 2.2947 5.6965 5.7286 5.6965 3.4099 0 5.6965-2.2626 5.6965-5.6965 0-3.442-2.2946-5.6965-5.6965-5.6965zm0 7.9831c-1.8614 0-3.0649-.9307-3.0649-2.2946 0-1.364 1.2116-2.2947 3.0649-2.2947 1.8293 0 3.0649.9307 3.0649 2.2947 0 1.3719-1.2436 2.2946-3.0649 2.2946zM69.4964 28.3578c1.4362 0 2.2866 1.6127 1.4683 2.8001L57.63 50.502c-.337.4814-.8825.7702-1.4682.7702-1.4362 0-2.2867-1.6127-1.4683-2.8001L68.0282 29.128c.3289-.4814.8745-.7702 1.4682-.7702zM70.9725 39.8792c-3.434-.0321-5.6965 2.2625-5.7286 5.6965 0 3.4339 2.2946 5.6965 5.7286 5.6965s5.6965-2.2626 5.6965-5.6965c0-3.434-2.2625-5.6965-5.6965-5.6965zm0 7.9831c-1.8614 0-3.0649-.9307-3.0649-2.2946 0-1.3961 1.2115-2.2947 3.0649-2.2947 1.8614 0 3.0649.8986 3.0649 2.2947 0 1.3719-1.2115 2.2946-3.0649 2.2946z" fill="#fff"/>
  <path d="M138.549 187.774c2.304 9.105-2.272 18.118-2.272 18.118s-8.317-5.741-10.628-14.847c-2.305-9.105 2.271-18.118 2.271-18.118s8.324 5.748 10.629 14.847z" fill="#3B7BF2"/>
  <path d="M154.389 208.164c-9.106 2.304-18.118-2.272-18.118-2.272s5.741-8.317 14.847-10.628c9.105-2.311 18.118 2.271 18.118 2.271s-5.742 8.324-14.847 10.629z" fill="#3B7BF2"/>
  <path d="M143.323 194.674c-4.927 7.126-7.443 11.126-10.311 16.615" stroke="#3B7BF2" stroke-width="2" stroke-miterlimit="10" stroke-linecap="round" stroke-linejoin="round"/>
  <path d="M158.448 187.185c-6.172 7.079-16.191 8.443-16.191 8.443s-.013-10.112 6.159-17.185c6.172-7.079 16.191-8.443 16.191-8.443s.013 10.112-6.159 17.185z" fill="#76ABFF"/>
</symbol><symbol id="win-heading" viewBox="0 0 568.85 109.24">
  <path d="M16,24.44V92H2.6V8H75V92H61.52V24.44H16Z" transform="translate(-2.1 -1.5)" fill="none" stroke="currentColor"/>
  <path d="M148.76,5.6c32.88,0,59.52,19.92,59.52,44.4s-26.64,44.4-59.52,44.4S89.24,74.48,89.24,50,115.88,5.6,148.76,5.6Zm0,72.12c24.48,0,44.4-12.36,44.4-27.72s-19.92-27.84-44.4-27.84C124,22.16,104,34.52,104,50S124,77.72,148.76,77.72Z" transform="translate(-2.1 -1.5)" fill="none" stroke="currentColor"/>
  <path d="M287.36,8V24.44H236v14.4h25.32c25.44,0,34,11.16,34,26.52,0,15.6-8.52,26.64-34,26.64H222.56V8h64.8ZM256.88,76.52c15.12,0,23.52-2,23.52-11.52S272,54.44,256.88,54.44H236V76.52h20.88Z" transform="translate(-2.1 -1.5)" fill="none" stroke="currentColor"/>
  <path d="M371.47,8V24.44H320.84V41.6h33.6V58h-33.6V75.56h50.64V92H307.4V8h64.08Z" transform="translate(-2.1 -1.5)" fill="none" stroke="currentColor"/>
  <path d="M382.39,110.24V75.56h7.44c4.56-4.68,7.8-18.36,8.76-56L399,8h48.6V75.56h10v34.68H442.87V92H397v18.24H382.39Zm51.72-34.68V24.44H411.55v3.12c-0.48,22.44-3.24,37.68-7.2,48h29.76Z" transform="translate(-2.1 -1.5)" fill="none" stroke="currentColor"/>
  <path d="M463.75,92l28-84h27.12l28.08,84H533.47l-7.8-23.52h-37.8L480.07,92H463.75Zm56.64-40L507,11.84,493.51,52h26.88Z" transform="translate(-2.1 -1.5)" fill="none" stroke="currentColor"/>
  <path d="M554.12,70.4L555.55,2H569l1.44,68.4H554.12Zm8.28,6.36c4.8,0,8,3.24,8,8.16a8,8,0,1,1-16.08,0C554.35,80,557.59,76.76,562.39,76.76Z" transform="translate(-2.1 -1.5)" fill="none" stroke="currentColor"/>
</symbol></svg>